<?xml version="1.0" encoding="UTF-8"?><!DOCTYPE svg PUBLIC "-//W3C//DTD SVG 1.1//EN" "http://www.w3.org/Graphics/SVG/1.1/DTD/svg11.dtd"><svg xmlns="http://www.w3.org/2000/svg"><symbol id="auth" viewBox="0 0 50 50"><path fill="#6ed42a" d="M19.875.406c-3.68.068-6.368 1.194-8 3.344-1.933 2.548-2.286 6.395-1.063 11.47-.45.55-.79 1.387-.656 2.5.265 2.204 1.122 3.107 1.844 3.468.343 1.73 1.3 3.676 2.22 4.593v.47c.008 1.016.002 1.895-.095 3.03-.612 1.407-2.65 2.233-5 3.157C5.22 33.975.365 35.873 0 41.938L-.063 43H27.095c1.9 4.122 6.076 7 10.906 7 6.617 0 12-5.383 12-12s-5.383-12-12-12c-4.11 0-7.743 2.06-9.906 5.22-.715-.365-1.296-.76-1.72-1.22a2.498 2.498 0 0 1-.468-.72c-.097-1.135-.07-2.017-.062-3.03v-.47c.896-.914 1.816-2.86 2.156-4.593.723-.36 1.58-1.264 1.844-3.468.13-1.09-.19-1.92-.625-2.47.58-1.98 1.768-7.107-.282-10.406-.858-1.384-2.162-2.255-3.875-2.594-.944-1.193-2.758-1.844-5.188-1.844zM38 28c5.514 0 10 4.486 10 10s-4.486 10-10 10-10-4.486-10-10 4.486-10 10-10zm-1 4v5h-5v2h5v5h2v-5h5v-2h-5v-5h-2zm-10.563 2.844c-.065.237-.136.475-.187.718.05-.245.122-.48.188-.718zm-.375 2.03z"/></symbol><symbol id="device-pc" viewBox="0 0 288.52 288.52"><path d="M266.02 19.745H22.5C10.094 19.745 0 29.84 0 42.245v170.307c0 12.406 10.094 22.5 22.5 22.5h113.26v16.722h-29.77v17h76.538v-17H152.76v-16.722h113.26c12.406 0 22.5-10.094 22.5-22.5V42.245c0-12.407-10.094-22.5-22.5-22.5zm-243.52 17h243.52c3.033 0 5.5 2.467 5.5 5.5v135.528H17V42.245c0-3.034 2.467-5.5 5.5-5.5zM266.02 218.05H22.5a5.506 5.506 0 0 1-5.5-5.5v-17.777h254.52v17.778c0 3.034-2.467 5.5-5.5 5.5z" fill="#7e8188"/></symbol><symbol id="device-phone" viewBox="0 0 512 512"><path d="M400 0H112C94.4 0 80 14.4 80 32v448c0 17.6 14.4 32 32 32h288c17.6 0 32-14.4 32-32V32c0-17.6-14.4-32-32-32zM256 488.89c-13.746 0-24.89-11.144-24.89-24.89s11.144-24.89 24.89-24.89 24.89 11.144 24.89 24.89-11.144 24.89-24.89 24.89zM400 416H112V64h288v352z" fill="#7e8188"/></symbol><symbol id="device-tablet" viewBox="0 0 364.869 364.869"><path d="M364.87 311.454V53.416c0-8.25-6.75-15-15-15H15c-8.25 0-15 6.75-15 15v258.037c0 8.25 6.75 15 15 15h334.87c8.25 0 15-6.75 15-15zM349.534 159.78v45.31a6.333 6.333 0 1 1-12.666 0v-45.31a6.333 6.333 0 1 1 12.665 0zM8.51 182.436c0-6.81 5.52-12.333 12.334-12.333 6.812 0 12.333 5.522 12.333 12.333 0 6.813-5.52 12.334-12.333 12.334-6.813 0-12.334-5.522-12.334-12.335zm49.662 108.68c-8.25 0-15-6.75-15-15V88.756c0-8.25 6.75-15 15-15h248.525c8.25 0 15 6.75 15 15v187.356c0 8.25-6.75 15-15 15H58.172z" fill="#7e8188"/><path d="M71.475 155.263a6.5 6.5 0 0 1-3.84-11.75l59.335-43.333a6.5 6.5 0 1 1 7.665 10.498l-59.333 43.334a6.46 6.46 0 0 1-3.827 1.25zM82.686 194.597a6.5 6.5 0 0 1-3.73-11.83l109.958-76.833a6.5 6.5 0 1 1 7.446 10.656L86.403 193.425a6.468 6.468 0 0 1-3.717 1.173z" fill="#7e8188"/></symbol><symbol id="messages" viewBox="0 0 542.662 542.662"><path d="M363.168 74.05c-18.537 0-36.43 2.37-53.263 6.76-28.03-11.01-59.3-17.2-92.283-17.2C97.627 63.61 0 145.124 0 245.313 0 298.455 27.28 348.14 75.14 382.7v96.353l99.846-55.573a260.474 260.474 0 0 0 42.63 3.54c59.48 0 113.44-20.042 152.763-52.445a213.32 213.32 0 0 0 26.908-2.607l84.34 46.938V337.38c38.906-28.557 61.034-69.35 61.034-112.995.012-82.893-80.52-150.334-179.494-150.334zM217.622 397.737c-14.18 0-28.484-1.338-42.508-3.968l-5.2-.973-65.497 36.452v-62.022l-6.504-4.346c-43.617-29.15-68.636-72.01-68.636-117.57 0-84.045 84.492-152.424 188.346-152.424 16.76 0 32.996 1.804 48.472 5.143-49.54 26.785-82.437 73.398-82.437 126.353 0 71.607 60.104 131.64 140.27 146.672-30.28 16.812-66.895 26.68-106.306 26.68zm241.243-80.143l-6.502 4.346v47.173L402.377 341.3l-.12.022-5.072.95a185.132 185.132 0 0 1-34.02 3.167c-1.226 0-2.426-.053-3.638-.075-81.162-1.572-146.593-55.214-146.593-120.982 0-51.133 39.568-94.93 95.313-112.642 14.197-4.508 29.437-7.33 45.355-8.144a185.71 185.71 0 0 1 9.565-.27c82.837 0 150.23 54.308 150.23 121.057 0 36.075-19.88 70.052-54.532 93.21z" fill="#FFF"/></symbol><symbol id="metrika" viewBox="0 0 27.964 27.964"><path fill="#00aff2" d="M13.982 0C6.26 0 0 6.26 0 13.985c0 7.72 6.26 13.98 13.982 13.98 7.722 0 13.982-6.26 13.982-13.98C27.964 6.26 21.704 0 13.982 0zm0 26.533c-6.933 0-12.55-5.62-12.55-12.55 0-6.934 5.617-12.55 12.55-12.55 6.93 0 12.55 5.616 12.55 12.55 0 6.93-5.62 12.55-12.55 12.55z"/><path fill="#00aff2" d="M12.004 10.55h3.93V23.2h-3.93zM13.995 5.072c-1.265 0-2.095.852-2.095 1.963C11.9 8.122 12.702 9 13.944 9c1.317 0 2.12-.878 2.12-1.965-.027-1.11-.802-1.963-2.07-1.963z"/></symbol><symbol id="msg-checked" viewBox="0 0 611.99 611.99"><path d="M606.453 101.17c-7.422-7.383-19.436-7.383-26.856 0l-369.91 369.183L32.71 293.72c-7.5-7.46-19.626-7.46-27.086 0-7.5 7.46-7.5 19.587 0 27.047L195.34 510.14c.116.115.307.153.422.27.115.113.153.267.23.38 7.42 7.423 19.434 7.423 26.855 0l383.605-382.84c7.384-7.384 7.384-19.396 0-26.78z" fill="#6ed42a"/></symbol><symbol id="phone" viewBox="0 0 24 24"><path fill="#6ed42a" d="M8 2.4c.1 0 .1 0 .2.1s.4.4.4.6c0 .2 0 .7.1 1.1.2.5.4 1.8.7 2.5.3.7.4 1.1.1 1.5-.3.5-2.2 2.4-2.2 2.4s.5 1 1.1 1.6c.5.7 1.3 1.7 2.3 2.5 1 .9 2.1 1.7 3.2 2.2 1.1-1.1 2-2 2.3-2.2.3-.2.3-.3.8-.1.5.2 1.2.5 2 .6.7.1 1.5.2 2 .3.5.1.5.1.6.3.2.2.3.5.3.6v4.1c0 .3 0 .3-.1.5s-.2.7-.2.7c0 .1-.5.3-.8.3-.3 0-1.4 0-2.1-.1-.7-.1-2.6-.5-3.3-.8-.7-.2-3-1-5.8-3.1C7 16 5.1 13.3 4 11.1S2.3 6.5 2.2 5.3C2 4.1 2 3.6 2 3.3c.1-.3.4-.6.6-.7.2-.1.5-.2.8-.2H8z"/></symbol><symbol id="send" viewBox="0 0 31.806 31.806"><path d="M1.286 12.465a2 2 0 0 0-.462 3.486l6.492 4.725 23.058-18.14L9.984 22.62l8.876 6.46a2.233 2.233 0 0 0 3.408-1.038l9.494-25.987a.717.717 0 0 0-.93-.914L1.286 12.466zM5.774 22.246l.055.3 1.26 6.89a1.558 1.558 0 0 0 2.372 1.03c1.755-1.133 4.047-2.635 3.985-2.723l-7.673-5.497z" fill="#FFF"/></symbol><symbol id="time" viewBox="0 0 510 510"><g fill="#FFF" fill-opacity=".9"><path d="M255 0C114.75 0 0 114.75 0 255s114.75 255 255 255 255-114.75 255-255S395.25 0 255 0zm0 459c-112.2 0-204-91.8-204-204S142.8 51 255 51s204 91.8 204 204-91.8 204-204 204z"/><path d="M267.75 127.5H229.5v153l132.6 81.6 20.4-33.15-114.75-68.85z"/></g></symbol><symbol id="user" viewBox="0 0 294.812 294.812"><path d="M251.654 43.164c-57.48-57.48-151.006-57.48-208.485 0C23 63.33 9.206 88.667 3.273 116.434c-5.776 27.037-3.884 55.05 5.47 81.006a6 6 0 0 0 11.29-4.07C11.44 169.523 9.7 143.786 15.01 118.94c5.446-25.496 18.118-48.766 36.644-67.292 52.8-52.8 138.714-52.8 191.515 0 25.144 25.146 39.22 58.57 39.633 94.12.413 35.484-12.81 69.176-37.234 94.868-.29.304-.576.61-.862.916-.506.54-1.01 1.083-1.54 1.61-52.8 52.802-138.713 52.802-191.514 0a44.08 44.08 0 0 1-.826-.852c-.014-.554-.026-1.1-.026-1.638 0-1.208.023-2.41.067-3.61.014-.4.044-.798.064-1.198.04-.797.076-1.594.134-2.387.035-.473.086-.94.128-1.412.063-.715.122-1.43.2-2.14.055-.503.127-1 .19-1.5.085-.676.166-1.353.266-2.025.076-.512.166-1.02.25-1.528.107-.655.21-1.31.332-1.96.095-.516.204-1.026.308-1.538.13-.64.256-1.28.398-1.914.115-.515.243-1.027.366-1.54.15-.624.3-1.25.46-1.87.136-.513.282-1.023.424-1.534.17-.612.34-1.225.524-1.833.153-.51.317-1.016.48-1.522.19-.6.383-1.202.586-1.798.172-.503.352-1.003.532-1.503.213-.593.427-1.185.65-1.773.19-.497.388-.99.586-1.482.233-.58.468-1.162.712-1.738.208-.49.422-.976.638-1.462.253-.57.51-1.14.773-1.705.226-.48.456-.96.69-1.436.273-.56.55-1.12.834-1.676a97.516 97.516 0 0 1 2.414-4.426 97.85 97.85 0 0 1 3.676-5.85c.353-.52.714-1.033 1.078-1.546.303-.427.606-.853.916-1.274a93.12 93.12 0 0 1 1.136-1.51c.317-.415.633-.83.957-1.238.393-.497.795-.988 1.198-1.477.33-.4.66-.8.995-1.195a95.68 95.68 0 0 1 1.26-1.443c.343-.387.683-.774 1.03-1.154a92.1 92.1 0 0 1 1.322-1.404c.354-.372.706-.745 1.066-1.112.455-.462.92-.914 1.384-1.368.364-.355.725-.714 1.095-1.064.478-.452.967-.893 1.454-1.335.372-.337.74-.678 1.116-1.01.503-.443 1.02-.873 1.532-1.306.376-.317.748-.64 1.13-.95.53-.435 1.074-.856 1.616-1.28.378-.295.75-.597 1.132-.887.57-.433 1.154-.85 1.736-1.27.367-.267.727-.54 1.1-.8.64-.45 1.298-.886 1.953-1.323.324-.215.64-.438.965-.65a96.73 96.73 0 0 1 2.598-1.622c.136-.082.268-.17.405-.252a98.838 98.838 0 0 1 3.076-1.766c.355-.195.72-.378 1.08-.57.688-.367 1.375-.738 2.076-1.09.45-.226.91-.438 1.362-.657.572-.277 1.142-.557 1.72-.824 10.876 10.388 25.383 16.27 40.44 16.27 15.06 0 29.567-5.883 40.442-16.272 21.23 9.825 38.604 27.454 48.037 48.892a6 6 0 1 0 10.984-4.832c-10.318-23.45-28.28-42.19-51.018-53.5 6.597-9.678 10.166-21.105 10.166-32.897 0-32.317-26.292-58.61-58.61-58.61a6 6 0 0 0 0 12c25.702 0 46.61 20.91 46.61 46.61 0 11.492-4.27 22.558-12.025 31.157l-.003.003c-8.854 9.818-21.458 15.45-34.582 15.45s-25.73-5.632-34.582-15.45c0-.002-.003-.003-.005-.004-7.753-8.602-12.023-19.665-12.023-31.155 0-12.544 4.91-24.312 13.83-33.134a6 6 0 0 0-8.44-8.53C94.977 80.02 88.8 94.818 88.8 110.593c0 11.78 3.56 23.198 10.146 32.87l-.174.09c-.468.235-.925.483-1.39.722-.71.368-1.423.734-2.124 1.117-.496.27-.98.554-1.472.83-.655.372-1.31.74-1.957 1.124-.5.298-.993.606-1.49.91-.62.383-1.24.764-1.85 1.157-.5.32-.99.65-1.482.98-.593.394-1.185.79-1.77 1.197-.49.342-.975.69-1.46 1.04-.57.41-1.138.824-1.7 1.245-.48.36-.955.727-1.43 1.095a103.25 103.25 0 0 0-4.61 3.787 101.472 101.472 0 0 0-2.876 2.592c-.436.407-.87.815-1.3 1.23-.5.482-.99.97-1.48 1.462-.42.42-.837.837-1.247 1.262-.485.503-.96 1.015-1.436 1.527-.398.428-.798.854-1.188 1.29-.475.527-.937 1.066-1.4 1.603-.374.432-.75.86-1.116 1.297-.47.563-.927 1.137-1.386 1.71-.34.425-.69.845-1.024 1.276-.482.62-.948 1.25-1.416 1.88-.294.397-.596.786-.884 1.186a106.27 106.27 0 0 0-1.733 2.488c-.15.22-.307.434-.455.655a107.713 107.713 0 0 0-2.063 3.203c-.23.373-.448.754-.674 1.13-.432.718-.867 1.436-1.284 2.165-.26.455-.506.918-.76 1.377-.364.66-.73 1.318-1.08 1.986-.26.496-.507.997-.76 1.496-.326.644-.653 1.287-.966 1.938-.25.518-.486 1.042-.727 1.563-.296.643-.593 1.285-.877 1.934-.234.536-.458 1.076-.683 1.615-.27.647-.54 1.294-.798 1.946-.217.55-.425 1.1-.633 1.65-.246.655-.49 1.31-.723 1.97a119.26 119.26 0 0 0-1.23 3.674 111.873 111.873 0 0 0-1.565 5.453 108.91 108.91 0 0 0-.51 2.063c-.136.576-.272 1.15-.4 1.73-.153.698-.296 1.4-.436 2.105-.116.576-.233 1.152-.34 1.73-.13.72-.248 1.44-.365 2.164-.092.57-.19 1.138-.272 1.71-.11.746-.2 1.496-.295 2.246-.07.556-.145 1.11-.206 1.67-.086.785-.152 1.576-.22 2.367-.047.527-.102 1.052-.14 1.582-.064.883-.106 1.77-.15 2.658-.02.44-.053.88-.07 1.32-.047 1.333-.074 2.67-.074 4.012 0 1.45.05 2.82.108 4.332.014.35.063.69.133 1.022.005.025.008.05.014.077.074.327.178.64.303.945l.036.09c.13.3.283.586.457.858.022.034.043.068.065.1.18.268.378.52.595.753.016.017.027.038.043.055l.792.843a75.61 75.61 0 0 0 1.82 1.902c28.74 28.74 66.49 43.11 104.243 43.11s75.503-14.37 104.243-43.11c.625-.623 1.223-1.262 1.82-1.9l.793-.844c26.59-27.97 40.985-64.647 40.536-103.275-.448-38.705-15.772-75.095-43.146-102.47z" fill="#FFF"/></symbol></svg>