<svg xmlns="http://www.w3.org/2000/svg" xmlns:xlink="http://www.w3.org/1999/xlink" version="1.1" x="0px" y="0px" viewBox="0 0 100 125" enable-background="new 0 0 100 100" xml:space="preserve"><g><path fill="none" d="M39.471,33.653c1.699,0.677,3.637,0.96,5.643,0.846c0.276-0.628,0.851-1.111,1.579-1.237   c1.154-0.2,2.251,0.573,2.452,1.728c0.199,1.154-0.574,2.251-1.729,2.452c-0.816,0.141-1.599-0.211-2.061-0.835   c-0.36,0.023-0.722,0.047-1.078,0.047c-1.249,0-2.466-0.146-3.628-0.42c2.189,3.982,5.55,6.533,9.318,6.533   c6.153,0,11.222-6.795,11.876-15.528c0.081-0.563,0.127-1.141,0.135-1.727l-1.922,2.207c1.061-2.346-2.714-8.319-2.714-8.319   c-6.359,4.599-15.814,0-15.814,0c-2.854,1.126-1.502,9.152-1.502,9.152c-0.713-0.498-1.365-0.756-1.898-0.891   C38.325,29.806,38.791,31.828,39.471,33.653z"/><path fill="none" d="M26.021,92.185h48.881c2.021,0,3.669-1.647,3.669-3.667l4.891-28.393c-0.004-1.98-1.65-3.625-3.671-3.625   H21.132c-2.022,0-3.667,1.645-3.667,3.665l4.884,28.312C22.354,90.537,23.999,92.185,26.021,92.185z M50.462,72.096   c0.972,0,1.758,0.788,1.758,1.755c0,0.974-0.786,1.759-1.758,1.759c-0.971,0-1.758-0.785-1.758-1.759   C48.704,72.884,49.491,72.096,50.462,72.096z"/><path fill="#1289FE" d="M61.319,43.329c-0.074,3.26-4.902,5.892-10.856,5.892c-5.952,0-10.782-2.631-10.854-5.892   c-7.365,0.672-13.434,5.809-15.486,12.682h52.681C74.752,49.138,68.683,44.001,61.319,43.329z"/><path fill="#1289FE" d="M78.201,93.473H22.722c-0.54,0-0.979,0.438-0.979,0.978s0.439,0.976,0.979,0.976h55.479   c0.542,0,0.978-0.436,0.978-0.976S78.743,93.473,78.201,93.473z"/><path fill="#1289FE" d="M26.021,92.672h48.881c2.293,0,4.156-1.863,4.153-4.115l4.891-28.392c0-2.292-1.864-4.154-4.155-4.154   h-2.986H24.123h-2.991c-2.292,0-4.156,1.862-4.152,4.196l4.885,28.311C21.865,90.809,23.729,92.672,26.021,92.672z M21.132,56.5   H79.79c2.021,0,3.667,1.645,3.671,3.625L78.57,88.518c0,2.02-1.647,3.667-3.669,3.667H26.021c-2.022,0-3.667-1.647-3.67-3.708   l-4.884-28.312C17.466,58.145,19.11,56.5,21.132,56.5z"/><path fill="#1289FE" d="M50.462,75.609c0.972,0,1.758-0.785,1.758-1.759c0-0.967-0.786-1.755-1.758-1.755   c-0.971,0-1.758,0.788-1.758,1.755C48.704,74.824,49.491,75.609,50.462,75.609z"/><path fill="#1289FE" d="M33.167,33.327c0.428,0,0.831-0.253,1.191-0.69c0.849,0.977,1.927,1.825,3.229,2.489c0.27,0.138,0.56,0.244,0.841,0.363   c2.404,5.622,6.668,9.37,11.54,9.37c7.01,0,12.781-7.741,13.527-17.688c0.103-0.713,0.157-1.448,0.157-2.19   c0-0.745-0.055-1.477-0.157-2.192c-1.003-6.914-6.677-12.211-13.527-12.211c-6.852,0-12.527,5.301-13.527,12.216   c-0.103,0.714-0.156,1.445-0.156,2.188c0,0.302,0.011,0.601,0.028,0.898c0.025,0.435,0.067,0.863,0.127,1.287   c0.009,0.129,0.021,0.257,0.033,0.386c0.154,1.738,0.468,3.401,0.908,4.968c-0.829-0.585-1.506-1.268-2.001-2.032   c0.322-1.117,0.514-2.483,0.514-3.964c0-1.682-0.246-3.218-0.65-4.405c1.68-7.751,7.659-13.509,14.779-13.509   c7.119,0,13.097,5.758,14.776,13.508c-0.405,1.188-0.651,2.724-0.651,4.406c0,3.757,1.223,6.804,2.729,6.804   s2.729-3.047,2.729-6.804c0-3.196-0.885-5.869-2.075-6.601C65.1,11.516,58.177,5.426,50.022,5.426s-15.079,6.089-17.509,14.495   c-1.191,0.731-2.076,3.405-2.076,6.602C30.438,30.28,31.66,33.327,33.167,33.327z M41.528,19.398c0,0,9.455,4.599,15.814,0   c0,0,3.774,5.973,2.714,8.319l1.922-2.207c-0.008,0.586-0.054,1.164-0.135,1.727c-0.654,8.733-5.723,15.528-11.876,15.528   c-3.769,0-7.129-2.55-9.318-6.533c1.162,0.274,2.379,0.42,3.628,0.42c0.356,0,0.718-0.023,1.078-0.047   c0.462,0.624,1.244,0.976,2.061,0.835c1.155-0.2,1.928-1.298,1.729-2.452c-0.201-1.155-1.298-1.928-2.452-1.728   c-0.728,0.126-1.302,0.609-1.579,1.237c-2.006,0.114-3.944-0.169-5.643-0.846c-0.681-1.825-1.146-3.847-1.343-5.993   c0.533,0.135,1.185,0.394,1.898,0.891C40.026,28.551,38.674,20.525,41.528,19.398z"/></g></svg>
