<svg xmlns="http://www.w3.org/2000/svg" xmlns:xlink="http://www.w3.org/1999/xlink" version="1.1" x="0px" y="0px" viewBox="0 0 100 125" enable-background="new 0 0 100 100" xml:space="preserve"><g><path fill="#000000" d="M11.38,40.778v45.228h17.573V40.778H11.38z"/></g><g><path fill="none" d="M89.225,56.574"/><path fill="#000000" d="M83.417,66.083C82.696,66.123,82.685,66.067,83.417,66.083c1.3-0.071,2.057-0.081,2.958-1.208   c7.611-9.523,0.037-10.637-2.888-10.176c-0.862,0.046-0.884-0.022,0,0c1.255-0.066,2.979-0.277,3.902-0.915   c1.188-0.821,1.868-2.722,1.977-3.047c0.286-0.912,0.618-2.269,0.645-3.894c0.251-3.012-2.307-5.492-5.57-5.492H66.397   c-3.012,0-5.492-2.794-5.492-5.807c0-3.012,3.908-9.506,4.238-16.789C65.649,7.537,54.315,8.714,54.315,8.714l0.005,0.003   c0,0-1.727,0.786-1.727,2.041v6.981c0,4.076-2.142,8.388-4.864,12.241c-2.306,3.266-5.303,7.433-7.492,9.621   c-2.26,1.758-4.717,4.158-7.729,4.158v40.269c0,0,5.021,2.51,12.552,2.51h28.086c0.37,0,7.688,0.028,9.676-5.523   c1.637-3.683-1.451-3.854-2.48-3.946c-0.883,0.045-0.844-0.075,0,0c1-0.051,6.251,0.686,7.221-8.07   C87.85,66.406,85.039,66.12,83.417,66.083z"/><path fill="#000000" d="M81.983,54.723c0,0,0.642,0.022,1.504-0.024C82.603,54.677,81.983,54.723,81.983,54.723z"/><path fill="#000000" d="M82.171,66.113c0,0,0.525,0.01,1.246-0.03C82.685,66.067,82.171,66.113,82.171,66.113z"/><path fill="#000000" d="M78.754,77.08c0,0,0.705,0.036,1.587-0.01C79.498,76.995,78.754,77.08,78.754,77.08z"/></g></svg>
