<svg xmlns="http://www.w3.org/2000/svg" xmlns:xlink="http://www.w3.org/1999/xlink" viewBox="0 0 100 125" version="1.1" x="0px" y="0px"><path fill="#1289FE" d="M21.9487179,97.9166667 C36.9208655,85.629885 50.1538453,74.7919771 50.1538462,75 C50.1538453,74.7919771 68.652366,89.9447415 78.3589744,97.9166667 L80.9230769,100 L80.9230769,96.875 L80.9230769,1.04166667 L80.9230769,0 L79.6410256,0 L20.6666667,0 L19.3846154,0 L19.3846154,1.04166667 L19.3846154,96.875 L19.3846154,100 L21.9487179,97.9166667 Z M15.5384615,3.84615385 L5.15384615,3.84615385 L4,3.84615385 L4,4.87477639 L4,89.2218247 L4,92.3076923 L6.30769231,90.2504472 C9.78995725,87.6764206 12.7614016,85.2998987 15.5384615,83.0500894 L15.5384615,78.9355993 L15.5384615,6.93202147 L15.5384615,3.84615385 Z M84.7692308,3.84615385 L95.1538462,3.84615385 L96.3076923,3.84615385 L96.3076923,4.87477639 L96.3076923,89.2218247 L96.3076923,92.3076923 L94,90.2504472 C90.5177351,87.6764206 87.5462907,85.2998987 84.7692308,83.0500894 L84.7692308,78.9355993 L84.7692308,6.93202147 L84.7692308,3.84615385 Z"/></svg>
