<svg xmlns:dc="http://purl.org/dc/elements/1.1/" xmlns:cc="http://creativecommons.org/ns#" xmlns:rdf="http://www.w3.org/1999/02/22-rdf-syntax-ns#" xmlns:svg="http://www.w3.org/2000/svg" xmlns="http://www.w3.org/2000/svg" xmlns:sodipodi="http://sodipodi.sourceforge.net/DTD/sodipodi-0.dtd" xmlns:inkscape="http://www.inkscape.org/namespaces/inkscape" version="1.1" viewBox="0 0 106.254 127.08375000000001" xml:space="preserve" x="0px" y="0px"><path d="m 7.298954,7.2763728 31.823467,0 0,-8.2802661 27.186857,0 0,8.2802661 c 11.01016,0 20.813316,0 31.823476,0 l 0,12.5304262 -90.8338,0 m 56.288991,-17.9010795 -21.300081,0 0,5.44287 21.300081,0 z" style="" fill="#1289FE" stroke="none"/><path style="" d="m 15.607676,25.11874 75.75356,0 -9.004576,78.53608 -57.744408,0 m 54.960408,-69.805933 -7.53878,0 -4.409818,63.762442 5.74656,0 z m -22.71307,0.05464 -7.53878,0 0.989838,63.749453 5.74656,0 z m -22.71307,0.504869 -7.53878,0 6.389493,63.629428 5.746561,0 z" fill="#1289FE" fill-opacity="1"/></svg>
