<svg xmlns="http://www.w3.org/2000/svg" viewBox="0 0 24 30" enable-background="new 0 0 24 24" x="0px" y="0px"><g><path fill="#1289FE" d="M6 20c-.296 0-.578-.132-.768-.359l-5-6c-.354-.425-.296-1.055.128-1.409.424-.354 1.054-.296 1.408.128l4.19 5.029 8.242-10.989c.331-.44.958-.532 1.399-.2.442.331.532.958.2 1.4l-9 12c-.183.245-.469.393-.774.4h-.025zM23 10h-4c-.553 0-1-.448-1-1s.447-1 1-1h4c.553 0 1 .448 1 1s-.447 1-1 1zM17 18h-4c-.552 0-1-.447-1-1s.448-1 1-1h4c.553 0 1 .447 1 1s-.447 1-1 1zM20 14h-4c-.553 0-1-.447-1-1 0-.552.447-1 1-1h4c.553 0 1 .448 1 1 0 .553-.447 1-1 1z"/></g></svg>
