<svg xmlns="http://www.w3.org/2000/svg" xmlns:xlink="http://www.w3.org/1999/xlink" version="1.1" x="0px" y="0px" viewBox="0 0 88 110" enable-background="new 0 0 88 88" xml:space="preserve"><g><path fill="#8b9ea9" d="M30.183,57.879l3.419-13.919L71.219,6.344c1.401-1.402,3.267-2.175,5.25-2.175   c1.982,0,3.848,0.772,5.25,2.175c1.402,1.402,2.175,3.267,2.175,5.25s-0.772,3.848-2.176,5.25L44.103,54.461L30.183,57.879z    M37.311,46.05l-1.531,6.233l6.233-1.531l36.807-36.807c0.628-0.628,0.974-1.463,0.974-2.351s-0.346-1.723-0.974-2.351   c-1.257-1.258-3.448-1.255-4.701,0L37.311,46.05z"/></g><g><path fill="#8b9ea9" d="M42.378,85.639C20.439,85.639,2.59,67.79,2.59,45.852c0-21.939,17.849-39.788,39.788-39.788   c4.991,0,9.86,0.914,14.474,2.716c2.108,0.824,3.15,3.202,2.327,5.311c-0.824,2.109-3.202,3.151-5.312,2.327   c-3.657-1.429-7.523-2.153-11.489-2.153c-17.417,0-31.587,14.17-31.587,31.587c0,17.417,14.17,31.588,31.587,31.588   c17.417,0,31.588-14.171,31.588-31.588c0-3.938-0.715-7.776-2.123-11.409c-0.818-2.111,0.23-4.486,2.342-5.305   c2.109-0.819,4.486,0.23,5.305,2.341c1.775,4.583,2.676,9.418,2.676,14.373C82.165,67.79,64.316,85.639,42.378,85.639z"/></g></svg>
