<svg xmlns="http://www.w3.org/2000/svg" viewBox="0 0 50 50" enable-background="new 0 0 50 50">
    <path fill="#74a3c7" d="M 46.4375 -0.03125 C 46.267969 -0.038271786 46.098261 -0.022067153 45.9375 0 C 45.263964 0.09245442 44.687485 0.42189797 44.28125 1.03125 L 44.25 1.09375 L 44.21875 1.125 L 35.65625 17.21875 C 34.689458 16.861266 33.735294 16.647955 32.84375 16.625 C 31.884055 16.60029 30.977092 16.750489 30.15625 17.09375 C 28.576128 17.754528 27.378648 19.048419 26.59375 20.6875 A 1.0001 1.0001 0 0 0 26.5 20.84375 C 26.496069 20.852386 26.503909 20.866345 26.5 20.875 A 1.0001 1.0001 0 0 0 26.46875 20.9375 A 1.0001 1.0001 0 0 0 26.4375 21.0625 C 25.895545 22.416172 25.269804 23.636458 24.5625 24.71875 C 24.554672 24.730728 24.539095 24.738053 24.53125 24.75 A 1.0001 1.0001 0 0 0 24.3125 25.03125 C 24.307676 25.038314 24.31733 25.055448 24.3125 25.0625 A 1.0001 1.0001 0 0 0 24.21875 25.21875 C 21.830154 28.636517 18.723496 30.695241 15.78125 31.96875 C 11.774195 33.703147 7.9372144 33.885845 7.09375 33.8125 A 1.0001 1.0001 0 0 0 6.21875 35.4375 C 17.612704 49.500308 34.375 50 34.375 50 A 1.0001 1.0001 0 0 0 34.9375 49.84375 C 34.9375 49.84375 37.008298 48.53056 39.5 45.40625 C 41.372251 43.058661 43.505221 39.662651 45.34375 34.96875 A 1.0030471 1.0030471 0 0 0 45.375 34.9375 A 1.0030471 1.0030471 0 0 0 45.6875 34.09375 A 1.0030471 1.0030471 0 0 0 45.6875 34.0625 C 46.172156 32.754076 46.640052 31.379328 47.0625 29.875 A 1.0045064 1.0045064 0 0 0 47.09375 29.6875 A 1.0045064 1.0045064 0 0 0 47.09375 29.65625 C 48.425534 26.217895 46.942509 22.433893 43.75 20.78125 L 49.9375 3.625 L 49.9375 3.59375 L 49.96875 3.5625 C 50.172418 2.8496608 49.936935 2.1679302 49.5625 1.625 C 49.208833 1.1121823 48.687866 0.71000224 48.0625 0.4375 L 48.0625 0.40625 C 48.04324 0.396618 48.01936 0.415567 48 0.40625 C 47.98847 0.400701 47.98031 0.380437 47.96875 0.375 C 47.478758 0.14463002 46.946094 -0.010184641 46.4375 -0.03125 z M 46.3125 2.0625 C 46.538468 2.0278352 46.835136 2.0269427 47.15625 2.1875 L 47.1875 2.21875 L 47.21875 2.21875 C 47.54266 2.3483138 47.811935 2.5679302 47.9375 2.75 C 48.063065 2.9320698 48.02758 3.0440892 48.03125 3.03125 L 41.9375 19.9375 C 41.203474 19.606307 40.693479 19.371478 39.65625 18.90625 C 38.882299 18.55911 38.148869 18.221916 37.5 17.9375 L 45.9375 2.15625 C 45.931265 2.165602 46.086532 2.0971648 46.3125 2.0625 z M 4 8 C 1.8027056 8 0 9.8027058 0 12 C 0 14.197294 1.8027056 16 4 16 C 6.1972944 16 8 14.197294 8 12 C 8 9.8027058 6.1972944 8 4 8 z M 4 10 C 5.116414 10 6 10.883586 6 12 C 6 13.116414 5.116414 14 4 14 C 2.883586 14 2 13.116414 2 12 C 2 10.883586 2.883586 10 4 10 z M 13 11 C 11.895431 11 11 11.895431 11 13 C 11 14.104569 11.895431 15 13 15 C 14.104569 15 15 14.104569 15 13 C 15 11.895431 14.104569 11 13 11 z M 11.5 18 C 8.4742784 18 6 20.474279 6 23.5 C 6 26.525721 8.4742784 29 11.5 29 C 14.525721 29 17 26.525721 17 23.5 C 17 20.474279 14.525721 18 11.5 18 z M 32.8125 18.625 C 33.509055 18.64404 34.26835 18.786849 35.125 19.125 A 1.0001 1.0001 0 0 0 35.1875 19.15625 A 1.0001 1.0001 0 0 0 36.25 19.59375 C 36.361715 19.641314 36.350658 19.636309 36.46875 19.6875 C 37.142697 19.979647 37.995612 20.338335 38.84375 20.71875 C 40.084512 21.275268 40.870583 21.612423 41.59375 21.9375 A 1.0001 1.0001 0 0 0 41.65625 22 A 1.0001 1.0001 0 0 0 42.59375 22.40625 A 1.0001 1.0001 0 0 0 42.625 22.40625 C 45.015957 23.500954 46.070389 26.104781 45.25 28.625 C 44.856256 28.61217 44.554293 28.6319 43.8125 28.46875 C 43.256559 28.346443 42.717937 28.15091 42.3125 27.90625 C 41.907063 27.66159 41.670926 27.419027 41.5625 27.09375 A 1.0001 1.0001 0 0 0 40.15625 26.5 C 39.818371 26.66894 38.971321 26.605206 38.21875 26.21875 C 37.842464 26.025522 37.508195 25.758195 37.28125 25.53125 C 37.054305 25.304305 36.99409 25.089537 37 25.125 A 1.0001 1.0001 0 0 0 35.65625 24.375 C 35.63034 24.385 35.296963 24.41917 34.90625 24.34375 C 34.515537 24.26833 34.060979 24.10789 33.625 23.90625 C 33.189021 23.70461 32.783556 23.457579 32.53125 23.25 C 32.278944 23.042421 32.254692 22.82817 32.28125 23.09375 A 1.0001 1.0001 0 0 0 31.21875 22.21875 C 30.214048 22.31444 29.275277 21.574916 28.71875 21.09375 C 29.306034 20.103882 30.030277 19.316884 30.9375 18.9375 C 31.491658 18.705761 32.115945 18.605959 32.8125 18.625 z M 11.5 20 C 13.444841 20 15 21.555159 15 23.5 C 15 25.444841 13.444841 27 11.5 27 C 9.5551588 27 8 25.444841 8 23.5 C 8 21.555159 9.5551588 20 11.5 20 z M 27.8125 22.96875 C 28.506571 23.46926 29.474047 23.988812 30.625 24.09375 C 30.806734 24.363399 31.009561 24.583435 31.25 24.78125 C 31.685194 25.139296 32.217229 25.45789 32.78125 25.71875 C 33.345271 25.97961 33.934463 26.197297 34.53125 26.3125 C 34.840171 26.37213 35.156144 26.25575 35.46875 26.25 C 35.615352 26.477828 35.682798 26.776548 35.875 26.96875 C 36.279305 27.373055 36.763786 27.718228 37.3125 28 C 38.126946 28.418229 39.103465 28.561866 40.0625 28.4375 C 40.391395 28.929525 40.7841 29.343853 41.25 29.625 C 41.932063 30.03659 42.680941 30.284807 43.375 30.4375 C 43.863099 30.544882 44.310238 30.588738 44.71875 30.625 C 44.442193 31.523952 44.142156 32.368548 43.84375 33.1875 C 43.482833 33.17694 43.043717 33.154854 42.5625 33.0625 C 41.468546 32.852549 40.434237 32.366322 40 31.53125 A 1.0001 1.0001 0 0 0 38.78125 31.0625 C 38.285234 31.237564 37.387483 31.163643 36.625 30.8125 C 35.862517 30.461357 35.286734 29.849895 35.15625 29.40625 A 1.0001 1.0001 0 0 0 33.8125 28.78125 C 33.572073 28.88429 32.623345 28.854362 31.84375 28.5 C 31.064155 28.145638 30.557859 27.546616 30.5 27.21875 A 1.0001 1.0001 0 0 0 29.25 26.4375 C 28.302949 26.692475 27.567994 26.35568 26.96875 25.90625 C 26.763484 25.752301 26.609664 25.584168 26.46875 25.4375 C 26.951302 24.669071 27.403675 23.850256 27.8125 22.96875 z M 25.3125 27.09375 C 25.460009 27.22883 25.601318 27.365051 25.78125 27.5 C 26.519401 28.053613 27.656777 28.450917 28.9375 28.375 C 29.402902 29.245582 30.155781 29.91456 31.03125 30.3125 C 31.89586 30.705505 32.814566 30.832724 33.71875 30.71875 C 34.21699 31.536008 34.913422 32.225342 35.78125 32.625 C 36.706918 33.051295 37.746064 33.159135 38.75 33 C 39.685056 34.166314 41.0124 34.805726 42.1875 35.03125 C 42.500891 35.091396 42.8099 35.128966 43.09375 35.15625 C 41.430466 39.17571 39.564995 42.115557 37.9375 44.15625 C 35.852313 46.770837 34.442646 47.756206 34.125 47.96875 C 33.770177 47.953354 31.163383 47.769049 27.5 46.75 C 27.801315 46.553411 28.123268 46.352181 28.46875 46.09375 C 30.138 44.845098 32.321204 42.804885 34.4375 39.65625 A 1.0001 1.0001 0 0 0 33.5 38.09375 A 1.0001 1.0001 0 0 0 32.78125 38.53125 C 30.797546 41.482615 28.75575 43.373652 27.25 44.5 C 25.819538 45.570031 24.991096 45.903923 24.90625 45.9375 C 22.657078 45.145971 20.164609 44.057517 17.625 42.53125 C 17.990466 42.410105 18.381114 42.250852 18.8125 42.0625 C 20.710976 41.233588 23.248188 39.688279 25.84375 36.78125 A 1.0001 1.0001 0 0 0 24.9375 35.09375 A 1.0001 1.0001 0 0 0 24.34375 35.4375 C 21.939312 38.130471 19.682774 39.497662 18.03125 40.21875 C 16.379726 40.939838 15.4375 41 15.4375 41 A 1.0019512 1.0019512 0 0 0 15.3125 41.03125 C 13.239819 39.570297 11.167378 37.792622 9.21875 35.65625 C 11.122835 35.506915 13.572253 35.120312 16.59375 33.8125 C 19.578831 32.52045 22.7622 30.409995 25.3125 27.09375 z"></path>
</svg>
