<svg xmlns="http://www.w3.org/2000/svg" width="50" height="50" viewBox="0 0 50 50">
    <path fill="#78909c" d="M26.18,49.416c-2.984,0-5.962-0.473-8.851-1.406c-2.933-0.947-5.589-2.447-7.895-4.457 c-2.311-2.018-4.201-4.613-5.619-7.719c-1.418-3.109-2.138-6.824-2.138-11.045c0-3.496,0.651-6.765,1.936-9.718 C4.895,12.127,6.674,9.54,8.901,7.38c2.229-2.158,4.858-3.866,7.815-5.076c2.967-1.213,6.151-1.828,9.465-1.828 c2.993,0,5.855,0.478,8.507,1.42c2.67,0.952,5.037,2.333,7.037,4.104c2.012,1.783,3.622,3.982,4.784,6.536 c1.164,2.558,1.754,5.439,1.754,8.563c0,2.638-0.463,5.144-1.376,7.447c-0.9,2.271-2.081,4.299-3.511,6.025 c-1.442,1.742-3.076,3.141-4.857,4.158c-1.853,1.057-3.693,1.592-5.472,1.592c-1.631,0-2.978-0.52-4.004-1.543 c-0.28-0.281-0.515-0.584-0.705-0.908c-0.865,0.709-1.801,1.238-2.795,1.576c-3.375,1.156-6.564,1.166-9.078,0.01 c-1.235-0.568-2.313-1.348-3.205-2.316c-0.879-0.947-1.586-2.086-2.1-3.379c-0.512-1.291-0.771-2.684-0.771-4.141 c0-2.146,0.39-4.392,1.159-6.673c0.764-2.27,1.859-4.403,3.255-6.339c1.418-1.97,3.163-3.61,5.186-4.874 c2.098-1.311,4.437-1.975,6.952-1.975c2.296,0,4.39,0.551,6.225,1.638c0.886,0.524,1.644,1.152,2.269,1.878l0.484-1.333 c0.217-0.585,0.774-0.974,1.39-0.974h1.337c0.482,0,0.937,0.237,1.214,0.634c0.283,0.406,0.345,0.921,0.166,1.379l-7.06,18.313 c-0.365,0.893-0.644,1.719-0.837,2.475c-0.161,0.625-0.216,1.176-0.158,1.596c0.043,0.318,0.152,0.447,0.253,0.533 c0.041,0.035,0.257,0.189,0.951,0.189c1.045,0,2.184-0.359,3.386-1.066c1.286-0.758,2.492-1.813,3.585-3.135 c1.103-1.336,2.04-2.959,2.786-4.822c0.732-1.831,1.104-3.839,1.104-5.97c0-2.408-0.449-4.646-1.337-6.652 c-0.888-2.005-2.127-3.744-3.683-5.167c-1.569-1.431-3.471-2.561-5.647-3.359c-2.201-0.805-4.619-1.213-7.187-1.213 c-2.882,0-5.588,0.527-8.041,1.568c-2.464,1.046-4.628,2.491-6.432,4.294c-1.807,1.808-3.241,3.95-4.262,6.368 c-1.02,2.408-1.537,5.05-1.537,7.853c0,3.388,0.549,6.392,1.631,8.927c1.076,2.529,2.55,4.67,4.381,6.363 c1.836,1.699,3.996,2.998,6.422,3.857c2.458,0.873,5.095,1.316,7.838,1.316c1.799,0,3.544-0.238,5.188-0.707 c1.657-0.475,3.248-1.145,4.728-1.992c1.487-0.854,2.86-1.865,4.08-3.008c1.236-1.154,2.323-2.402,3.231-3.709 c0.282-0.4,0.734-0.633,1.214-0.633h1.465c0.54,0,1.035,0.293,1.292,0.764c0.257,0.445,0.25,1.021-0.03,1.48 c-1.077,1.797-2.425,3.465-4.001,4.953c-1.573,1.48-3.297,2.75-5.125,3.775c-1.834,1.027-3.796,1.834-5.832,2.395 C30.342,49.131,28.253,49.416,26.18,49.416z M26.691,13.99c-1.683,0-3.257,0.483-4.68,1.435c-1.515,1.017-2.828,2.312-3.903,3.85 c-1.098,1.567-1.963,3.299-2.573,5.148c-0.605,1.834-0.912,3.583-0.912,5.196c0,0.951,0.157,1.826,0.467,2.6 c0.311,0.779,0.746,1.469,1.293,2.049c0.536,0.568,1.184,1.021,1.927,1.342c1.287,0.557,2.956,0.629,4.769,0.203 c0.737-0.172,1.459-0.494,2.148-0.961c0.714-0.482,1.425-1.172,2.114-2.045c0.687-0.871,1.31-2.018,1.85-3.406l4.33-11.224 c-0.23-0.692-0.537-1.276-0.915-1.74c-0.477-0.575-1.034-1.047-1.653-1.398c-0.655-0.371-1.352-0.639-2.068-0.797 C28.121,14.075,27.382,13.99,26.691,13.99z"></path>
</svg>
