<svg xmlns="http://www.w3.org/2000/svg" xmlns:xlink="http://www.w3.org/1999/xlink" version="1.1" x="0px" y="0px" viewBox="0 0 90 112.5" style="enable-background:new 0 0 90 90;" xml:space="preserve"><path fill="#1289FE" d="M76.804,81.923c-0.679,0-1.354-0.274-1.848-0.814L56.982,61.422c-3.696,2.696-8.025,4.003-12.667,3.812   c-7.023-0.297-12.643-3.828-15.322-6.762c-3.814-4.178-5.774-9.591-5.517-15.242s2.699-10.865,6.877-14.679   c8.626-7.875,22.048-7.263,29.921,1.36c7.305,8,7.31,20.128,0.388,28.127l17.987,19.7c0.931,1.02,0.858,2.601-0.161,3.532   C78.009,81.707,77.405,81.923,76.804,81.923z M44.627,28.019c-3.897,0-7.805,1.395-10.903,4.224   c-3.191,2.914-5.057,6.896-5.253,11.214c-0.196,4.317,1.301,8.453,4.215,11.644c2.192,2.4,6.704,4.92,11.841,5.138   c4.172,0.175,7.878-1.199,11.003-4.087c0.005-0.004,0.009-0.008,0.014-0.012c6.588-6.016,7.054-16.27,1.038-22.858   C53.396,29.791,49.019,28.019,44.627,28.019z"/><path fill="#1289FE" d="M44.937,86.464c-9.956,0-19.47-3.539-27.067-10.126C9.512,69.091,4.477,59.023,3.691,47.989    C2.905,36.956,6.463,26.276,13.71,17.918C20.957,9.56,31.024,4.524,42.059,3.739C53.093,2.954,63.771,6.512,72.13,13.758    c8.358,7.247,13.394,17.314,14.179,28.349c0.55,7.716-1.057,15.396-4.644,22.207c-0.626,1.19-2.101,1.649-3.29,1.021    c-1.19-0.627-1.647-2.1-1.021-3.29c3.163-6.008,4.579-12.782,4.095-19.592c-0.693-9.736-5.136-18.619-12.511-25.013    c-7.374-6.394-16.799-9.537-26.534-8.84c-9.736,0.693-18.619,5.136-25.013,12.511c-6.394,7.375-9.534,16.798-8.84,26.534    c0.693,9.736,5.136,18.619,12.511,25.013c7.375,6.395,16.795,9.527,26.534,8.841c4.039-0.288,7.959-1.226,11.651-2.787    c1.237-0.526,2.669,0.056,3.192,1.294c0.524,1.239-0.055,2.669-1.294,3.192c-4.187,1.771-8.629,2.835-13.204,3.16    C46.937,86.429,45.935,86.464,44.937,86.464z"/></svg>
