<svg xmlns="http://www.w3.org/2000/svg" width="50" height="50" viewBox="0 0 50 50">
    <path fill="#78909c" d="M 25.90625 3.28125 C 16.56725 3.49125 15.507 10.3175 17.5 18.1875 C 17.186 18.3985 16.55025 19.14725 16.65625 20.40625 C 16.97025 22.71425 17.9135 23.34375 18.4375 23.34375 C 18.6475 24.91775 19.391 26.575 20.125 27.625 C 20.649 28.359 20.84375 29.306 20.84375 30.25 C 20.84375 31.089 20.855 30.556 20.75 31.5 C 20.646 31.806 20.4975 32.08275 20.3125 32.34375 C 20.5255 33.15175 21.766 37 26 37 C 30.334 37 31.501 32.84675 31.625 32.34375 C 31.431 32.08575 31.27225 31.803 31.15625 31.5 C 31.05125 30.347 31.03125 30.8815 31.03125 29.9375 C 31.03125 29.0985 31.36025 28.38 31.78125 27.75 C 32.51525 26.7 33.2285 24.91775 33.4375 23.34375 C 34.0685 23.34375 35.00875 22.71425 35.21875 20.40625 C 35.32375 19.14725 34.82625 18.3975 34.40625 18.1875 C 35.45525 15.2495 37.43475 6.1315 30.71875 5.1875 C 29.98475 3.9285 28.21325 3.28125 25.90625 3.28125 z M 33.28125 33.75 C 32.44025 35.984 30.218 39 26 39 C 21.776 39 19.5625 36.03825 18.6875 33.78125 C 14.5325 36.34125 6.0625 37.125 6.0625 46 L 45.9375 46 C 45.9375 36.897 37.50825 36.273 33.28125 33.75 z"></path>
</svg>
