<svg xmlns="http://www.w3.org/2000/svg" viewBox="0 0 32 32">
    <path fill="#74a3c7" d="M 3.71875 2.28125 L 2.28125 3.71875 L 28.28125 29.71875 L 29.71875 28.28125 L 22.3125 20.875 C 22.559762 20.556358 22.802422 20.22906 23 19.875 L 24.03125 20.28125 C 24.168434 21.25212 24.991269 22 26 22 C 27.104569 22 28 21.104569 28 20 C 28 18.895431 27.104569 18 26 18 C 25.537224 18 25.120134 18.173618 24.78125 18.4375 L 23.71875 18.03125 C 23.83014 17.614085 23.895526 17.19121 23.9375 16.75 C 24.567495 16.413398 25 15.764526 25 15 C 25 14.043484 24.334455 13.228753 23.4375 13.03125 C 23.250082 12.561917 22.987668 12.139617 22.71875 11.71875 L 23.5 10.9375 C 23.659759 10.978604 23.827411 11 24 11 C 25.104569 11 26 10.104569 26 9 C 26 7.8954305 25.104569 7 24 7 C 22.895431 7 22 7.8954305 22 9 C 22 9.1725889 22.021396 9.3402409 22.0625 9.5 L 21.4375 10.125 C 20.241892 9.0193056 18.696157 8.2754953 17 8.0625 L 17 7.71875 C 17.596896 7.3727074 18 6.7396043 18 6 C 18 4.8954305 17.104569 4 16 4 C 14.895431 4 14 4.8954305 14 6 C 14 6.7396043 14.403104 7.3727074 15 7.71875 L 15 8.0625 C 13.560843 8.2445554 12.221439 8.8116557 11.125 9.65625 L 10.625 9.15625 C 10.856252 8.8299759 11 8.430569 11 8 C 11 6.895 10.105 6 9 6 C 8.569431 6 8.1700241 6.1437481 7.84375 6.375 L 3.71875 2.28125 z M 16 10 C 19.309 10 22 12.691 22 16 C 22 17.277398 21.590347 18.464881 20.90625 19.4375 L 17.125 15.65625 C 17.657003 15.296835 18 14.690356 18 14 C 18 12.895431 17.104569 12 16 12 C 15.309644 12 14.703165 12.342997 14.34375 12.875 L 12.5625 11.09375 C 13.535119 10.409653 14.722602 10 16 10 z M 8.65625 12.84375 C 8.3651798 13.521048 8.157263 14.24275 8.0625 15 L 7.71875 15 C 7.3727074 14.403104 6.7396043 14 6 14 C 4.8954305 14 4 14.895431 4 16 C 4 17.104569 4.8954305 18 6 18 C 6.7396043 18 7.3727074 17.596896 7.71875 17 L 8.0625 17 C 8.177784 17.918047 8.4436088 18.799002 8.84375 19.59375 L 7.46875 21 C 7.3003978 20.953992 7.1204443 20.9375 6.9375 20.9375 C 5.8329305 20.9375 4.9375 21.832931 4.9375 22.9375 C 4.9375 24.04207 5.8329305 24.9375 6.9375 24.9375 C 8.0420695 24.9375 8.9375 24.04207 8.9375 22.9375 C 8.9375 22.754556 8.9210082 22.574602 8.875 22.40625 L 10 21.28125 C 10.637052 22.006033 11.39162 22.60534 12.25 23.0625 C 12.100054 23.343055 12 23.659659 12 24 C 12 25.104569 12.895431 26 14 26 C 15.104569 26 16 25.104569 16 24 C 16.697 24 17.38525 23.88675 18.03125 23.71875 L 18.4375 24.78125 C 18.1705 25.12025 18 25.535 18 26 C 18 27.105 18.895 28 20 28 C 21.042 28 21.87575 27.2055 21.96875 26.1875 L 17.59375 21.78125 C 17.08875 21.91925 16.548 22 16 22 C 12.691 22 10 19.309 10 16 C 10 15.452 10.08075 14.91125 10.21875 14.40625 L 8.65625 12.84375 z M 20 15 C 19.447715 15 19 15.447715 19 16 C 19 16.552285 19.447715 17 20 17 C 20.552285 17 21 16.552285 21 16 C 21 15.447715 20.552285 15 20 15 z M 12.84375 17.03125 C 12.37475 17.11325 12 17.507 12 18 C 12 18.552 12.448 19 13 19 C 13.493 19 13.88775 18.62625 13.96875 18.15625 L 12.84375 17.03125 z"></path>
</svg>
