<svg xmlns="http://www.w3.org/2000/svg" xmlns:xlink="http://www.w3.org/1999/xlink" version="1.0" x="0px" y="0px" viewBox="0 0 100 125" enable-background="new 0 0 100 100" xml:space="preserve"><path  fill="#74a3c7" d="M67.927,73.276C67.629,72.507,66.888,72,66.062,72h-9.454V54c0-1.104-0.896-2-2-2H43.016  c-1.104,0-2,0.896-2,2v18h-8.704c-0.826,0-1.566,0.507-1.865,1.276c-0.298,0.771-0.093,1.644,0.516,2.2l16.875,15.407  c0.382,0.349,0.865,0.523,1.349,0.523s0.967-0.175,1.349-0.523l16.875-15.407C68.021,74.92,68.226,74.047,67.927,73.276z"/><path fill="#74a3c7" d="M72.86,28.047C70.256,16.726,60.134,8.5,48.259,8.5c-9.384,0-17.96,5.218-22.315,13.434  C15.108,23.521,6.86,32.905,6.86,44.034c0,12.319,10.022,22.341,22.341,22.341h0.111c0,0,2.844-0.094,2.844-3  c0-3.25-2.844-3-2.844-3h-0.111c-9.011,0-16.341-7.331-16.341-16.341c0-8.577,6.699-15.738,15.25-16.301l1.809-0.119l0.736-1.658  C33.744,18.997,40.653,14.5,48.259,14.5c9.779,0,18,7.316,19.12,17.019l0.347,3.001l2.999-0.368  c0.623-0.076,1.139-0.112,1.623-0.112c7.261,0,13.168,5.907,13.168,13.167c0,7.26-5.907,13.167-13.168,13.167h-3.285  c0,0-3.144-0.052-3.144,3.031c0,2.875,3.144,2.969,3.144,2.969h3.285c10.569,0,19.168-8.599,19.168-19.167  C91.516,36.81,83.193,28.32,72.86,28.047z"/></svg>
