<svg xmlns="http://www.w3.org/2000/svg" width="50" height="50" viewBox="0 0 50 50">
    <path fill="#1289FE" d="M 6 6 L 6 7 L 6 18 A 1.0001 1.0001 0 0 0 7.21875 19 A 1.0001 1.0001 0 0 0 7.5 18.875 A 1.0001 1.0001 0 0 0 7.5625 18.84375 A 1.0001 1.0001 0 0 0 7.71875 18.6875 A 1.0001 1.0001 0 0 0 8 18 L 8 9.40625 L 20.28125 21.71875 A 1.016466 1.016466 0 0 0 21.21875 22 A 1.016466 1.016466 0 0 0 21.5 21.875 A 1.016466 1.016466 0 0 0 21.59375 21.84375 A 1.016466 1.016466 0 0 0 21.75 21.6875 A 1.016466 1.016466 0 0 0 21.71875 20.28125 L 9.40625 8 L 18 8 A 1.0001 1.0001 0 0 0 18.28125 7.96875 A 1.0001 1.0001 0 0 0 18.375 7.9375 A 1.0001 1.0001 0 0 0 19 7 A 1.0001 1.0001 0 0 0 19 6.875 A 1.0001 1.0001 0 0 0 18 6 L 7 6 L 6 6 z M 31.71875 6 A 1.0043849 1.0043849 0 0 0 32 8 L 40.59375 8 L 28.28125 20.28125 A 1.016466 1.016466 0 0 0 29.25 22 A 1.016466 1.016466 0 0 0 29.4375 21.90625 A 1.016466 1.016466 0 0 0 29.71875 21.71875 L 42 9.40625 L 42 18 A 1.0001 1.0001 0 0 0 43.21875 19 A 1.0001 1.0001 0 0 0 43.5 18.875 A 1.0001 1.0001 0 0 0 43.5625 18.84375 A 1.0001 1.0001 0 0 0 43.71875 18.6875 A 1.0001 1.0001 0 0 0 44 18 L 44 7 L 44 6 L 43 6 L 32 6 A 1.0001 1.0001 0 0 0 31.90625 6 A 1.001098 1.001098 0 0 0 31.8125 6 A 1.0043849 1.0043849 0 0 0 31.71875 6 z M 28.90625 27.96875 A 1.0001 1.0001 0 0 0 28.78125 28 A 1.0001 1.0001 0 0 0 28.5 28.09375 A 1.0001 1.0001 0 0 0 28.125 28.4375 A 1.0001 1.0001 0 0 0 27.96875 28.78125 A 1.0001 1.0001 0 0 0 27.96875 29.09375 A 1.0001 1.0001 0 0 0 28.09375 29.46875 A 1.0001 1.0001 0 0 0 28.125 29.5625 A 1.0001 1.0001 0 0 0 28.1875 29.625 A 1.0001 1.0001 0 0 0 28.28125 29.71875 L 40.59375 42 L 32 42 A 1.0001 1.0001 0 0 0 31.53125 42.125 A 1.0001 1.0001 0 0 0 31.28125 42.28125 A 1.0001 1.0001 0 0 0 31.21875 42.375 A 1.0001 1.0001 0 0 0 31.15625 42.4375 A 1.0001 1.0001 0 0 0 31 42.90625 A 1.0001 1.0001 0 0 0 31 43 A 1.0001 1.0001 0 0 0 31.125 43.5 A 1.0001 1.0001 0 0 0 31.15625 43.5625 A 1.0001 1.0001 0 0 0 31.21875 43.65625 A 1.0001 1.0001 0 0 0 31.46875 43.84375 A 1.0001 1.0001 0 0 0 31.53125 43.90625 A 1.0001 1.0001 0 0 0 31.84375 44 A 1.0001 1.0001 0 0 0 32 44 L 43 44 L 44 44 L 44 43 L 44 32 A 1.0001 1.0001 0 0 0 44 31.90625 A 1.0001 1.0001 0 0 0 44 31.8125 A 1.0001 1.0001 0 0 0 43.9375 31.59375 A 1.0001 1.0001 0 0 0 43.875 31.53125 A 1.0001 1.0001 0 0 0 43.78125 31.34375 A 1.0001 1.0001 0 0 0 43.71875 31.28125 A 1.0001 1.0001 0 0 0 43.625 31.21875 A 1.0001 1.0001 0 0 0 42.78125 31 A 1.0001 1.0001 0 0 0 42 32 L 42 40.59375 L 29.71875 28.28125 A 1.0001 1.0001 0 0 0 29.3125 28 A 1.0001 1.0001 0 0 0 28.90625 27.96875 z M 20.875 28 A 1.0001 1.0001 0 0 0 20.28125 28.28125 L 8 40.59375 L 8 32 A 1.0001 1.0001 0 0 0 8 31.90625 A 1.0001 1.0001 0 0 0 8 31.8125 A 1.0001 1.0001 0 0 0 7.96875 31.6875 A 1.0001 1.0001 0 0 0 7.84375 31.4375 A 1.0001 1.0001 0 0 0 7.78125 31.34375 A 1.0001 1.0001 0 0 0 7.71875 31.28125 A 1.0001 1.0001 0 0 0 7.46875 31.09375 A 1.0001 1.0001 0 0 0 7.21875 31 A 1.0001 1.0001 0 0 0 7.09375 30.96875 A 1.0001 1.0001 0 0 0 6.90625 30.96875 A 1.0001 1.0001 0 0 0 6.78125 31 A 1.0001 1.0001 0 0 0 6 32 L 6 43 L 6 44 L 7 44 L 18 44 A 1.0001 1.0001 0 0 0 18.28125 43.96875 A 1.0001 1.0001 0 0 0 18.375 43.9375 A 1.0001 1.0001 0 0 0 19 43 A 1.0001 1.0001 0 0 0 19 42.875 A 1.0001 1.0001 0 0 0 18 42 L 9.40625 42 L 21.71875 29.71875 A 1.0001 1.0001 0 0 0 20.875 28 z"></path>
</svg>
