<svg xmlns="http://www.w3.org/2000/svg" xmlns:xlink="http://www.w3.org/1999/xlink" version="1.1" x="0px" y="0px" viewBox="0 0 80 100" enable-background="new 0 0 80 80" xml:space="preserve"><g><path fill="#1289FE" d="M53,60H27c-1.654,0-3-1.346-3-3V31c0-1.654,1.346-3,3-3h26c1.654,0,3,1.346,3,3v26   C56,58.654,54.654,60,53,60z M27,30c-0.552,0-1,0.449-1,1v26c0,0.551,0.448,1,1,1h26c0.552,0,1-0.449,1-1V31c0-0.551-0.448-1-1-1   H27z"/></g><g><rect x="39" y="29" fill="#1289FE" width="2" height="30"/></g><g><rect x="25" y="43" fill="#1289FE" width="30" height="2"/></g><g><polygon fill="#1289FE" points="40,27.414 35.293,22.707 36.707,21.293 40,24.586 43.293,21.293 44.707,22.707  "/></g></svg>
