<svg xmlns="http://www.w3.org/2000/svg" xmlns:xlink="http://www.w3.org/1999/xlink" version="1.1" x="0px" y="0px" viewBox="0 0 500 625" enable-background="new 0 0 500 500" xml:space="preserve"><path fill="#1289FE" d="M303.69,500H39.31C17.634,500,0,482.365,0,460.689V39.311C0,17.635,17.634,0,39.31,0h264.38  C325.365,0,343,17.635,343,39.311V115c0,5.523-4.479,10-10,10c-5.522,0-10-4.477-10-10V39.311C323,28.663,314.338,20,303.69,20  H39.31C28.662,20,20,28.663,20,39.311V460.69C20,471.338,28.662,480,39.31,480h264.38c10.647,0,19.311-8.662,19.311-19.311V379  c0-5.521,4.478-10,10-10c5.521,0,10,4.479,10,10v81.689C343,482.365,325.365,500,303.69,500z"/><g><path fill="#1289FE" d="M141,250c0-5.522,4.479-10,10-10h320c5.523,0,10,4.478,10,10s-4.477,10-10,10H151C145.479,260,141,255.522,141,250z"/><g><path fill="#1289FE" d="M482.93,256.644l-84.146-84.146c-3.905-3.904-3.905-10.235,0-14.142s10.237-3.905,14.142,0l84.146,84.146    c3.905,3.905,3.905,10.237,0,14.143c-1.952,1.952-4.512,2.929-7.071,2.929C487.442,259.573,484.881,258.597,482.93,256.644z"/><path fill="#1289FE" d="M398.783,341.643c-3.905-3.906-3.905-10.238,0-14.144l84.146-84.145c3.905-3.904,10.237-3.904,14.143,0    c3.905,3.906,3.905,10.238,0,14.143l-84.146,84.146c-1.951,1.952-4.512,2.929-7.07,2.929    C403.296,344.572,400.738,343.596,398.783,341.643z"/></g></g></svg>
